# MagicaVoxel @ Ephtracy

# group
o 

# material
mtllib RockDotted.mtl
usemtl palette

# normals
vn -1 0 0
vn 1 0 0
vn 0 0 1
vn 0 0 -1
vn 0 -1 0
vn 0 1 0

# texcoords
vt 0.00195313 0.5
vt 0.0527344 0.5
vt 0.0644531 0.5
vt 0.0839844 0.5

# verts
v -0.9 0 0.6
v -0.9 0 -0.6
v -0.9 0.1 0.5
v -0.9 0.1 0.3
v -0.9 0.1 -0.2
v -0.9 0.1 -0.5
v -0.9 0.3 0.5
v -0.9 0.3 0.3
v -0.9 0.3 -0.2
v -0.9 0.3 -0.5
v -0.9 0.5 0.3
v -0.9 0.5 -0.1
v -0.9 0.9 0.5
v -0.9 0.9 0.3
v -0.9 0.9 -0.1
v -0.9 0.9 -0.5
v -0.9 1 0.6
v -0.9 1 -0.6
v -0.6 0 0.9
v -0.6 0 0.6
v -0.6 0 -0.6
v -0.6 0 -0.9
v -0.6 0.1 0.8
v -0.6 0.1 0.6
v -0.6 0.1 -0.6
v -0.6 0.1 -0.8
v -0.6 0.5 -0.6
v -0.6 0.5 -0.7
v -0.6 0.7 0.8
v -0.6 0.7 0.6
v -0.6 0.8 -0.6
v -0.6 0.8 -0.7
v -0.6 0.9 0.8
v -0.6 0.9 0.6
v -0.6 0.9 -0.6
v -0.6 0.9 -0.8
v -0.6 1 0.9
v -0.6 1 0.6
v -0.6 1 0.4
v -0.6 1 0.3
v -0.6 1 -0.1
v -0.6 1 -0.3
v -0.6 1 -0.4
v -0.6 1 -0.6
v -0.6 1 -0.9
v -0.6 1.3 0.3
v -0.6 1.3 -0.1
v -0.6 1.4 0
v -0.6 1.4 -0.2
v -0.6 1.6 0.3
v -0.6 1.6 0
v -0.6 1.6 -0.2
v -0.6 1.6 -0.3
v -0.6 1.7 0.4
v -0.6 1.7 -0.4
v -0.3 1 0.6
v -0.3 1 0.5
v -0.3 1 0.4
v -0.3 1 -0.4
v -0.3 1 -0.5
v -0.3 1 -0.6
v -0.3 1.6 0.5
v -0.3 1.6 0.4
v -0.3 1.6 -0.4
v -0.3 1.6 -0.5
v -0.3 1.7 0.6
v -0.3 1.7 0.4
v -0.3 1.7 0.3
v -0.3 1.7 0
v -0.3 1.7 -0.2
v -0.3 1.7 -0.3
v -0.3 1.7 -0.4
v -0.3 1.7 -0.6
v -0.3 1.8 0.3
v -0.3 1.8 0.1
v -0.3 1.9 0.3
v -0.3 1.9 0.1
v -0.3 1.9 -0.3
v -0.3 2 0.4
v -0.3 2 -0.4
v 0.3 1 0.6
v 0.3 1 0.5
v 0.3 1 0.4
v 0.3 1 -0.4
v 0.3 1 -0.5
v 0.3 1 -0.6
v 0.3 1.2 0.5
v 0.3 1.2 0.4
v 0.3 1.6 0.5
v 0.3 1.6 0.4
v 0.3 1.6 -0.4
v 0.3 1.6 -0.5
v 0.3 1.7 0.6
v 0.3 1.7 0.4
v 0.3 1.7 0.3
v 0.3 1.7 0.1
v 0.3 1.7 -0.3
v 0.3 1.7 -0.4
v 0.3 1.7 -0.6
v 0.3 1.9 0.3
v 0.3 1.9 0.1
v 0.3 1.9 -0.3
v 0.3 2 0.4
v 0.3 2 -0.4
v 0.6 0 0.9
v 0.6 0 0.6
v 0.6 0 -0.6
v 0.6 0 -0.9
v 0.6 0.1 0.8
v 0.6 0.1 0.6
v 0.6 0.1 -0.6
v 0.6 0.1 -0.8
v 0.6 0.2 -0.6
v 0.6 0.2 -0.8
v 0.6 0.3 0.7
v 0.6 0.3 0.6
v 0.6 0.4 -0.6
v 0.6 0.4 -0.8
v 0.6 0.6 0.7
v 0.6 0.6 0.6
v 0.6 0.9 0.8
v 0.6 0.9 0.6
v 0.6 0.9 -0.6
v 0.6 0.9 -0.8
v 0.6 1 0.9
v 0.6 1 0.6
v 0.6 1 0.4
v 0.6 1 0.3
v 0.6 1 0.2
v 0.6 1 0
v 0.6 1 -0.3
v 0.6 1 -0.4
v 0.6 1 -0.6
v 0.6 1 -0.9
v 0.6 1.3 0.2
v 0.6 1.3 0
v 0.6 1.4 -0.1
v 0.6 1.4 -0.3
v 0.6 1.6 0.3
v 0.6 1.6 -0.1
v 0.6 1.6 -0.3
v 0.6 1.7 0.4
v 0.6 1.7 -0.4
v 0.9 0 0.6
v 0.9 0 -0.6
v 0.9 0.1 0.5
v 0.9 0.1 -0.5
v 0.9 0.2 0
v 0.9 0.2 -0.3
v 0.9 0.5 0.4
v 0.9 0.5 0.1
v 0.9 0.5 0
v 0.9 0.5 -0.3
v 0.9 0.7 -0.3
v 0.9 0.7 -0.5
v 0.9 0.9 0.5
v 0.9 0.9 0.4
v 0.9 0.9 0.1
v 0.9 0.9 -0.3
v 0.9 0.9 -0.5
v 0.9 1 0.6
v 0.9 1 -0.6
v -0.6 0 0.9
v -0.6 1 0.9
v -0.5 0.1 0.9
v -0.5 0.9 0.9
v -0.4 0.5 0.9
v -0.4 0.8 0.9
v -0.1 0.5 0.9
v -0.1 0.8 0.9
v 0 0.1 0.9
v 0 0.5 0.9
v 0.5 0.1 0.9
v 0.5 0.5 0.9
v 0.5 0.9 0.9
v 0.6 0 0.9
v 0.6 1 0.9
v -0.9 0 0.6
v -0.9 1 0.6
v -0.8 0.1 0.6
v -0.8 0.9 0.6
v -0.7 0.7 0.6
v -0.7 0.9 0.6
v -0.6 0 0.6
v -0.6 0.1 0.6
v -0.6 0.7 0.6
v -0.6 0.9 0.6
v -0.6 1 0.6
v -0.3 1 0.6
v -0.3 1.7 0.6
v -0.2 1 0.6
v -0.2 1.2 0.6
v -0.2 1.5 0.6
v -0.2 1.6 0.6
v 0 1.2 0.6
v 0 1.5 0.6
v 0.2 1 0.6
v 0.2 1.6 0.6
v 0.3 1 0.6
v 0.3 1.7 0.6
v 0.6 0 0.6
v 0.6 0.1 0.6
v 0.6 0.3 0.6
v 0.6 0.6 0.6
v 0.6 0.9 0.6
v 0.6 1 0.6
v 0.7 0.3 0.6
v 0.7 0.6 0.6
v 0.8 0.1 0.6
v 0.8 0.9 0.6
v 0.9 0 0.6
v 0.9 1 0.6
v -0.6 1 0.4
v -0.6 1.7 0.4
v -0.5 1 0.4
v -0.5 1.6 0.4
v -0.3 1 0.4
v -0.3 1.6 0.4
v -0.3 1.7 0.4
v -0.3 2 0.4
v -0.2 1.7 0.4
v -0.2 1.9 0.4
v 0 1.7 0.4
v 0 1.9 0.4
v 0.2 1.7 0.4
v 0.2 1.9 0.4
v 0.3 1 0.4
v 0.3 1.2 0.4
v 0.3 1.6 0.4
v 0.3 1.7 0.4
v 0.3 2 0.4
v 0.4 1 0.4
v 0.4 1.2 0.4
v 0.5 1 0.4
v 0.5 1.6 0.4
v 0.6 1 0.4
v 0.6 1.7 0.4
v -0.6 1 -0.4
v -0.6 1.7 -0.4
v -0.5 1 -0.4
v -0.5 1.6 -0.4
v -0.3 1 -0.4
v -0.3 1.6 -0.4
v -0.3 1.7 -0.4
v -0.3 2 -0.4
v -0.2 1.7 -0.4
v -0.2 1.9 -0.4
v 0 1.7 -0.4
v 0 1.9 -0.4
v 0.2 1.7 -0.4
v 0.2 1.9 -0.4
v 0.3 1 -0.4
v 0.3 1.6 -0.4
v 0.3 1.7 -0.4
v 0.3 2 -0.4
v 0.5 1 -0.4
v 0.5 1.6 -0.4
v 0.6 1 -0.4
v 0.6 1.7 -0.4
v -0.9 0 -0.6
v -0.9 1 -0.6
v -0.8 0.1 -0.6
v -0.8 0.5 -0.6
v -0.8 0.8 -0.6
v -0.8 0.9 -0.6
v -0.6 0 -0.6
v -0.6 0.1 -0.6
v -0.6 0.5 -0.6
v -0.6 0.8 -0.6
v -0.6 0.9 -0.6
v -0.6 1 -0.6
v -0.3 1 -0.6
v -0.3 1.7 -0.6
v -0.2 1 -0.6
v -0.2 1.6 -0.6
v -0.1 1.2 -0.6
v -0.1 1.5 -0.6
v 0.1 1.2 -0.6
v 0.1 1.5 -0.6
v 0.2 1 -0.6
v 0.2 1.6 -0.6
v 0.3 1 -0.6
v 0.3 1.7 -0.6
v 0.6 0 -0.6
v 0.6 0.1 -0.6
v 0.6 0.2 -0.6
v 0.6 0.4 -0.6
v 0.6 0.9 -0.6
v 0.6 1 -0.6
v 0.7 0.2 -0.6
v 0.7 0.4 -0.6
v 0.8 0.1 -0.6
v 0.8 0.9 -0.6
v 0.9 0 -0.6
v 0.9 1 -0.6
v -0.6 0 -0.9
v -0.6 1 -0.9
v -0.5 0.1 -0.9
v -0.5 0.2 -0.9
v -0.5 0.7 -0.9
v -0.5 0.9 -0.9
v -0.1 0.2 -0.9
v -0.1 0.7 -0.9
v 0.2 0.5 -0.9
v 0.2 0.8 -0.9
v 0.5 0.1 -0.9
v 0.5 0.5 -0.9
v 0.5 0.8 -0.9
v 0.5 0.9 -0.9
v 0.6 0 -0.9
v 0.6 1 -0.9
v -0.6 0 0.9
v 0.6 0 0.9
v -0.5 0 0.8
v 0.5 0 0.8
v -0.9 0 0.6
v -0.6 0 0.6
v 0.6 0 0.6
v 0.9 0 0.6
v -0.8 0 0.5
v -0.5 0 0.5
v 0.5 0 0.5
v 0.8 0 0.5
v -0.8 0 -0.5
v -0.5 0 -0.5
v 0.5 0 -0.5
v 0.8 0 -0.5
v -0.9 0 -0.6
v -0.6 0 -0.6
v 0.6 0 -0.6
v 0.9 0 -0.6
v -0.5 0 -0.8
v 0.5 0 -0.8
v -0.6 0 -0.9
v 0.6 0 -0.9
v -0.6 1 0.9
v 0.6 1 0.9
v -0.5 1 0.8
v 0.5 1 0.8
v -0.5 1 0.7
v -0.3 1 0.7
v -0.9 1 0.6
v -0.6 1 0.6
v -0.5 1 0.6
v -0.3 1 0.6
v -0.2 1 0.6
v 0.2 1 0.6
v 0.3 1 0.6
v 0.5 1 0.6
v 0.6 1 0.6
v 0.9 1 0.6
v -0.8 1 0.5
v -0.6 1 0.5
v -0.3 1 0.5
v 0.3 1 0.5
v 0.4 1 0.5
v 0.6 1 0.5
v 0.8 1 0.5
v -0.6 1 0.4
v -0.5 1 0.4
v -0.3 1 0.4
v 0.3 1 0.4
v 0.4 1 0.4
v 0.5 1 0.4
v 0.6 1 0.4
v -0.7 1 0.3
v -0.6 1 0.3
v 0.6 1 0.3
v 0.6 1 0.2
v 0.7 1 0.2
v 0.6 1 0
v 0.7 1 0
v -0.7 1 -0.1
v -0.6 1 -0.1
v -0.6 1 -0.3
v 0.6 1 -0.3
v -0.6 1 -0.4
v -0.5 1 -0.4
v -0.3 1 -0.4
v 0.3 1 -0.4
v 0.5 1 -0.4
v 0.6 1 -0.4
v -0.8 1 -0.5
v -0.6 1 -0.5
v -0.3 1 -0.5
v 0.3 1 -0.5
v 0.6 1 -0.5
v 0.8 1 -0.5
v -0.9 1 -0.6
v -0.6 1 -0.6
v -0.5 1 -0.6
v -0.3 1 -0.6
v -0.2 1 -0.6
v 0.2 1 -0.6
v 0.3 1 -0.6
v 0.5 1 -0.6
v 0.6 1 -0.6
v 0.9 1 -0.6
v -0.5 1 -0.8
v 0.5 1 -0.8
v -0.6 1 -0.9
v 0.6 1 -0.9
v -0.3 1.7 0.6
v 0.3 1.7 0.6
v -0.2 1.7 0.5
v 0.2 1.7 0.5
v -0.6 1.7 0.4
v -0.3 1.7 0.4
v -0.2 1.7 0.4
v 0 1.7 0.4
v 0.2 1.7 0.4
v 0.3 1.7 0.4
v 0.6 1.7 0.4
v -0.5 1.7 0.3
v -0.3 1.7 0.3
v 0.3 1.7 0.3
v 0.4 1.7 0.3
v 0.5 1.7 0.3
v 0.3 1.7 0.1
v 0.4 1.7 0.1
v -0.5 1.7 0
v -0.3 1.7 0
v -0.5 1.7 -0.2
v -0.3 1.7 -0.2
v -0.5 1.7 -0.3
v -0.3 1.7 -0.3
v 0.3 1.7 -0.3
v 0.5 1.7 -0.3
v -0.6 1.7 -0.4
v -0.3 1.7 -0.4
v -0.2 1.7 -0.4
v 0 1.7 -0.4
v 0.2 1.7 -0.4
v 0.3 1.7 -0.4
v 0.6 1.7 -0.4
v -0.2 1.7 -0.5
v 0 1.7 -0.5
v 0.2 1.7 -0.5
v -0.3 1.7 -0.6
v 0.3 1.7 -0.6
v -0.3 2 0.4
v 0.3 2 0.4
v -0.2 2 0.3
v 0.1 2 0.3
v 0.2 2 0.3
v 0.1 2 0.2
v 0.2 2 0.2
v -0.2 2 0.1
v 0 2 0.1
v -0.2 2 -0.1
v 0 2 -0.1
v -0.2 2 -0.3
v 0.2 2 -0.3
v -0.3 2 -0.4
v 0.3 2 -0.4

# faces
f 3/4/1 2/4/1 1/4/1
f 4/4/1 2/4/1 3/4/1
f 5/4/1 2/4/1 4/4/1
f 6/4/1 2/4/1 5/4/1
f 7/4/1 3/4/1 1/4/1
f 7/2/1 4/2/1 3/2/1
f 8/3/1 5/3/1 4/3/1
f 8/2/1 4/2/1 7/2/1
f 9/2/1 6/2/1 5/2/1
f 9/3/1 5/3/1 8/3/1
f 10/4/1 2/4/1 6/4/1
f 10/2/1 6/2/1 9/2/1
f 11/3/1 9/3/1 8/3/1
f 11/3/1 8/3/1 7/3/1
f 11/3/1 10/3/1 9/3/1
f 12/3/1 10/3/1 11/3/1
f 13/4/1 7/4/1 1/4/1
f 13/3/1 11/3/1 7/3/1
f 14/2/1 12/2/1 11/2/1
f 14/3/1 11/3/1 13/3/1
f 15/3/1 10/3/1 12/3/1
f 15/2/1 12/2/1 14/2/1
f 16/4/1 2/4/1 10/4/1
f 16/3/1 10/3/1 15/3/1
f 17/4/1 15/4/1 14/4/1
f 17/4/1 14/4/1 13/4/1
f 17/4/1 16/4/1 15/4/1
f 17/4/1 13/4/1 1/4/1
f 18/4/1 2/4/1 16/4/1
f 18/4/1 16/4/1 17/4/1
f 23/4/1 20/4/1 19/4/1
f 24/4/1 20/4/1 23/4/1
f 25/4/1 22/4/1 21/4/1
f 26/4/1 22/4/1 25/4/1
f 27/3/1 26/3/1 25/3/1
f 28/3/1 26/3/1 27/3/1
f 29/3/1 24/3/1 23/3/1
f 29/4/1 23/4/1 19/4/1
f 30/3/1 24/3/1 29/3/1
f 31/2/1 28/2/1 27/2/1
f 32/3/1 26/3/1 28/3/1
f 32/2/1 28/2/1 31/2/1
f 33/2/1 30/2/1 29/2/1
f 33/4/1 29/4/1 19/4/1
f 34/2/1 30/2/1 33/2/1
f 35/3/1 32/3/1 31/3/1
f 36/3/1 26/3/1 32/3/1
f 36/3/1 32/3/1 35/3/1
f 36/4/1 22/4/1 26/4/1
f 37/4/1 33/4/1 19/4/1
f 37/4/1 34/4/1 33/4/1
f 38/4/1 34/4/1 37/4/1
f 44/4/1 36/4/1 35/4/1
f 45/4/1 22/4/1 36/4/1
f 45/4/1 36/4/1 44/4/1
f 46/4/1 40/4/1 39/4/1
f 46/2/1 41/2/1 40/2/1
f 47/3/1 42/3/1 41/3/1
f 47/2/1 41/2/1 46/2/1
f 48/3/1 47/3/1 46/3/1
f 49/3/1 42/3/1 47/3/1
f 49/3/1 47/3/1 48/3/1
f 50/4/1 46/4/1 39/4/1
f 50/3/1 48/3/1 46/3/1
f 51/2/1 49/2/1 48/2/1
f 51/3/1 48/3/1 50/3/1
f 52/3/1 42/3/1 49/3/1
f 52/2/1 49/2/1 51/2/1
f 53/4/1 43/4/1 42/4/1
f 53/3/1 42/3/1 52/3/1
f 54/4/1 52/4/1 51/4/1
f 54/4/1 51/4/1 50/4/1
f 54/4/1 53/4/1 52/4/1
f 54/4/1 50/4/1 39/4/1
f 55/4/1 43/4/1 53/4/1
f 55/4/1 53/4/1 54/4/1
f 62/4/1 57/4/1 56/4/1
f 62/3/1 58/3/1 57/3/1
f 63/3/1 58/3/1 62/3/1
f 64/3/1 60/3/1 59/3/1
f 65/4/1 61/4/1 60/4/1
f 65/3/1 60/3/1 64/3/1
f 66/4/1 63/4/1 62/4/1
f 66/4/1 62/4/1 56/4/1
f 67/4/1 63/4/1 66/4/1
f 72/4/1 65/4/1 64/4/1
f 73/4/1 61/4/1 65/4/1
f 73/4/1 65/4/1 72/4/1
f 74/3/1 71/3/1 70/3/1
f 74/4/1 68/4/1 67/4/1
f 74/3/1 70/3/1 69/3/1
f 74/3/1 69/3/1 68/3/1
f 75/3/1 71/3/1 74/3/1
f 76/4/1 74/4/1 67/4/1
f 76/2/1 75/2/1 74/2/1
f 77/3/1 71/3/1 75/3/1
f 77/2/1 75/2/1 76/2/1
f 78/4/1 72/4/1 71/4/1
f 78/3/1 71/3/1 77/3/1
f 79/4/1 77/4/1 76/4/1
f 79/4/1 76/4/1 67/4/1
f 79/4/1 78/4/1 77/4/1
f 80/4/1 72/4/1 78/4/1
f 80/4/1 78/4/1 79/4/1
f 81/4/2 82/4/2 87/4/2
f 82/2/2 83/2/2 87/2/2
f 87/2/2 83/2/2 88/2/2
f 81/4/2 87/4/2 89/4/2
f 87/3/2 88/3/2 89/3/2
f 89/3/2 88/3/2 90/3/2
f 84/3/2 85/3/2 91/3/2
f 85/4/2 86/4/2 92/4/2
f 91/3/2 85/3/2 92/3/2
f 89/4/2 90/4/2 93/4/2
f 81/4/2 89/4/2 93/4/2
f 93/4/2 90/4/2 94/4/2
f 91/4/2 92/4/2 98/4/2
f 92/4/2 86/4/2 99/4/2
f 98/4/2 92/4/2 99/4/2
f 94/4/2 95/4/2 100/4/2
f 95/2/2 96/2/2 100/2/2
f 96/3/2 97/3/2 101/3/2
f 100/2/2 96/2/2 101/2/2
f 97/4/2 98/4/2 102/4/2
f 101/3/2 97/3/2 102/3/2
f 100/4/2 101/4/2 103/4/2
f 94/4/2 100/4/2 103/4/2
f 101/4/2 102/4/2 103/4/2
f 102/4/2 98/4/2 104/4/2
f 103/4/2 102/4/2 104/4/2
f 105/4/2 106/4/2 109/4/2
f 109/4/2 106/4/2 110/4/2
f 107/4/2 108/4/2 111/4/2
f 111/4/2 108/4/2 112/4/2
f 111/3/2 112/3/2 113/3/2
f 112/4/2 108/4/2 114/4/2
f 113/3/2 112/3/2 114/3/2
f 109/3/2 110/3/2 115/3/2
f 115/3/2 110/3/2 116/3/2
f 113/2/2 114/2/2 117/2/2
f 114/4/2 108/4/2 118/4/2
f 117/2/2 114/2/2 118/2/2
f 115/2/2 116/2/2 119/2/2
f 109/3/2 115/3/2 119/3/2
f 119/2/2 116/2/2 120/2/2
f 105/4/2 109/4/2 121/4/2
f 109/3/2 119/3/2 121/3/2
f 119/3/2 120/3/2 121/3/2
f 121/3/2 120/3/2 122/3/2
f 117/3/2 118/3/2 123/3/2
f 118/4/2 108/4/2 124/4/2
f 123/3/2 118/3/2 124/3/2
f 121/4/2 122/4/2 125/4/2
f 105/4/2 121/4/2 125/4/2
f 125/4/2 122/4/2 126/4/2
f 123/4/2 124/4/2 133/4/2
f 124/4/2 108/4/2 134/4/2
f 133/4/2 124/4/2 134/4/2
f 128/3/2 129/3/2 135/3/2
f 129/2/2 130/2/2 135/2/2
f 130/3/2 131/3/2 136/3/2
f 135/2/2 130/2/2 136/2/2
f 135/3/2 136/3/2 137/3/2
f 136/3/2 131/3/2 137/3/2
f 131/4/2 132/4/2 138/4/2
f 137/3/2 131/3/2 138/3/2
f 135/3/2 137/3/2 139/3/2
f 127/4/2 128/4/2 139/4/2
f 128/3/2 135/3/2 139/3/2
f 137/2/2 138/2/2 140/2/2
f 139/3/2 137/3/2 140/3/2
f 138/4/2 132/4/2 141/4/2
f 140/2/2 138/2/2 141/2/2
f 139/4/2 140/4/2 142/4/2
f 127/4/2 139/4/2 142/4/2
f 140/4/2 141/4/2 142/4/2
f 141/4/2 132/4/2 143/4/2
f 142/4/2 141/4/2 143/4/2
f 144/4/2 145/4/2 146/4/2
f 146/4/2 145/4/2 147/4/2
f 146/3/2 147/3/2 148/3/2
f 148/3/2 147/3/2 149/3/2
f 146/3/2 148/3/2 150/3/2
f 150/3/2 148/3/2 151/3/2
f 148/2/2 149/2/2 152/2/2
f 151/3/2 148/3/2 152/3/2
f 149/3/2 147/3/2 153/3/2
f 152/2/2 149/2/2 153/2/2
f 151/3/2 152/3/2 154/3/2
f 153/3/2 147/3/2 154/3/2
f 152/3/2 153/3/2 154/3/2
f 147/4/2 145/4/2 155/4/2
f 154/3/2 147/3/2 155/3/2
f 144/4/2 146/4/2 156/4/2
f 146/3/2 150/3/2 156/3/2
f 150/2/2 151/2/2 157/2/2
f 156/3/2 150/3/2 157/3/2
f 151/3/2 154/3/2 158/3/2
f 157/2/2 151/2/2 158/2/2
f 154/2/2 155/2/2 159/2/2
f 158/3/2 154/3/2 159/3/2
f 155/4/2 145/4/2 160/4/2
f 159/2/2 155/2/2 160/2/2
f 158/4/2 159/4/2 161/4/2
f 156/4/2 157/4/2 161/4/2
f 159/4/2 160/4/2 161/4/2
f 144/4/2 156/4/2 161/4/2
f 157/4/2 158/4/2 161/4/2
f 160/4/2 145/4/2 162/4/2
f 161/4/2 160/4/2 162/4/2
f 165/4/3 164/4/3 163/4/3
f 166/4/3 164/4/3 165/4/3
f 167/3/3 166/3/3 165/3/3
f 168/3/3 166/3/3 167/3/3
f 169/3/3 167/3/3 165/3/3
f 169/2/3 168/2/3 167/2/3
f 170/3/3 166/3/3 168/3/3
f 170/2/3 168/2/3 169/2/3
f 171/4/3 165/4/3 163/4/3
f 171/3/3 169/3/3 165/3/3
f 171/3/3 170/3/3 169/3/3
f 172/3/3 170/3/3 171/3/3
f 173/4/3 171/4/3 163/4/3
f 173/2/3 172/2/3 171/2/3
f 174/3/3 170/3/3 172/3/3
f 174/2/3 172/2/3 173/2/3
f 175/3/3 166/3/3 170/3/3
f 175/3/3 170/3/3 174/3/3
f 175/4/3 164/4/3 166/4/3
f 176/4/3 174/4/3 173/4/3
f 176/4/3 173/4/3 163/4/3
f 176/4/3 175/4/3 174/4/3
f 177/4/3 164/4/3 175/4/3
f 177/4/3 175/4/3 176/4/3
f 180/4/3 179/4/3 178/4/3
f 181/4/3 179/4/3 180/4/3
f 182/3/3 181/3/3 180/3/3
f 183/4/3 179/4/3 181/4/3
f 183/3/3 181/3/3 182/3/3
f 184/4/3 180/4/3 178/4/3
f 185/3/3 182/3/3 180/3/3
f 185/4/3 180/4/3 184/4/3
f 186/2/3 183/2/3 182/2/3
f 186/3/3 182/3/3 185/3/3
f 187/4/3 179/4/3 183/4/3
f 187/2/3 183/2/3 186/2/3
f 188/4/3 179/4/3 187/4/3
f 191/4/3 190/4/3 189/4/3
f 192/4/3 190/4/3 191/4/3
f 193/4/3 190/4/3 192/4/3
f 194/4/3 190/4/3 193/4/3
f 195/3/3 192/3/3 191/3/3
f 195/2/3 193/2/3 192/2/3
f 196/3/3 194/3/3 193/3/3
f 196/2/3 193/2/3 195/2/3
f 197/3/3 195/3/3 191/3/3
f 197/3/3 196/3/3 195/3/3
f 198/4/3 190/4/3 194/4/3
f 198/3/3 196/3/3 197/3/3
f 198/3/3 194/3/3 196/3/3
f 199/4/3 198/4/3 197/4/3
f 200/4/3 190/4/3 198/4/3
f 200/4/3 198/4/3 199/4/3
f 207/3/3 203/3/3 202/3/3
f 207/2/3 204/2/3 203/2/3
f 208/3/3 205/3/3 204/3/3
f 208/2/3 204/2/3 207/2/3
f 209/4/3 202/4/3 201/4/3
f 209/3/3 207/3/3 202/3/3
f 209/3/3 208/3/3 207/3/3
f 210/3/3 205/3/3 208/3/3
f 210/3/3 208/3/3 209/3/3
f 210/4/3 206/4/3 205/4/3
f 211/4/3 209/4/3 201/4/3
f 211/4/3 210/4/3 209/4/3
f 212/4/3 206/4/3 210/4/3
f 212/4/3 210/4/3 211/4/3
f 215/4/3 214/4/3 213/4/3
f 216/4/3 214/4/3 215/4/3
f 217/3/3 216/3/3 215/3/3
f 218/4/3 214/4/3 216/4/3
f 218/3/3 216/3/3 217/3/3
f 219/4/3 214/4/3 218/4/3
f 221/4/3 220/4/3 219/4/3
f 222/4/3 220/4/3 221/4/3
f 223/2/3 222/2/3 221/2/3
f 224/4/3 220/4/3 222/4/3
f 224/2/3 222/2/3 223/2/3
f 225/3/3 224/3/3 223/3/3
f 226/4/3 220/4/3 224/4/3
f 226/3/3 224/3/3 225/3/3
f 230/4/3 226/4/3 225/4/3
f 231/4/3 220/4/3 226/4/3
f 231/4/3 226/4/3 230/4/3
f 232/2/3 228/2/3 227/2/3
f 233/3/3 229/3/3 228/3/3
f 233/2/3 228/2/3 232/2/3
f 234/3/3 233/3/3 232/3/3
f 235/4/3 230/4/3 229/4/3
f 235/3/3 233/3/3 234/3/3
f 235/3/3 229/3/3 233/3/3
f 236/4/3 235/4/3 234/4/3
f 237/4/3 230/4/3 235/4/3
f 237/4/3 235/4/3 236/4/3
f 238/4/4 239/4/4 240/4/4
f 240/4/4 239/4/4 241/4/4
f 240/3/4 241/3/4 242/3/4
f 241/4/4 239/4/4 243/4/4
f 242/3/4 241/3/4 243/3/4
f 243/4/4 239/4/4 244/4/4
f 244/4/4 245/4/4 246/4/4
f 246/4/4 245/4/4 247/4/4
f 246/3/4 247/3/4 248/3/4
f 247/4/4 245/4/4 249/4/4
f 248/3/4 247/3/4 249/3/4
f 248/2/4 249/2/4 250/2/4
f 249/4/4 245/4/4 251/4/4
f 250/2/4 249/2/4 251/2/4
f 250/4/4 251/4/4 254/4/4
f 251/4/4 245/4/4 255/4/4
f 254/4/4 251/4/4 255/4/4
f 252/3/4 253/3/4 256/3/4
f 253/4/4 254/4/4 257/4/4
f 256/3/4 253/3/4 257/3/4
f 256/4/4 257/4/4 258/4/4
f 257/4/4 254/4/4 259/4/4
f 258/4/4 257/4/4 259/4/4
f 260/4/4 261/4/4 262/4/4
f 262/4/4 261/4/4 263/4/4
f 263/4/4 261/4/4 264/4/4
f 264/4/4 261/4/4 265/4/4
f 260/4/4 262/4/4 266/4/4
f 262/3/4 263/3/4 267/3/4
f 266/4/4 262/4/4 267/4/4
f 263/2/4 264/2/4 268/2/4
f 267/3/4 263/3/4 268/3/4
f 264/3/4 265/3/4 269/3/4
f 268/2/4 264/2/4 269/2/4
f 265/4/4 261/4/4 270/4/4
f 269/3/4 265/3/4 270/3/4
f 270/4/4 261/4/4 271/4/4
f 272/4/4 273/4/4 274/4/4
f 274/4/4 273/4/4 275/4/4
f 274/3/4 275/3/4 276/3/4
f 276/3/4 275/3/4 277/3/4
f 274/3/4 276/3/4 278/3/4
f 276/2/4 277/2/4 278/2/4
f 277/3/4 275/3/4 279/3/4
f 278/2/4 277/2/4 279/2/4
f 274/3/4 278/3/4 280/3/4
f 278/3/4 279/3/4 280/3/4
f 275/4/4 273/4/4 281/4/4
f 280/3/4 279/3/4 281/3/4
f 279/3/4 275/3/4 281/3/4
f 280/4/4 281/4/4 282/4/4
f 281/4/4 273/4/4 283/4/4
f 282/4/4 281/4/4 283/4/4
f 285/3/4 286/3/4 290/3/4
f 286/2/4 287/2/4 290/2/4
f 287/3/4 288/3/4 291/3/4
f 290/2/4 287/2/4 291/2/4
f 284/4/4 285/4/4 292/4/4
f 285/3/4 290/3/4 292/3/4
f 290/3/4 291/3/4 292/3/4
f 291/3/4 288/3/4 293/3/4
f 292/3/4 291/3/4 293/3/4
f 288/4/4 289/4/4 293/4/4
f 284/4/4 292/4/4 294/4/4
f 292/4/4 293/4/4 294/4/4
f 293/4/4 289/4/4 295/4/4
f 294/4/4 293/4/4 295/4/4
f 296/4/4 297/4/4 298/4/4
f 298/4/4 297/4/4 299/4/4
f 299/4/4 297/4/4 300/4/4
f 300/4/4 297/4/4 301/4/4
f 298/3/4 299/3/4 302/3/4
f 299/2/4 300/2/4 302/2/4
f 300/3/4 301/3/4 303/3/4
f 302/2/4 300/2/4 303/2/4
f 302/3/4 303/3/4 304/3/4
f 303/3/4 301/3/4 305/3/4
f 304/3/4 303/3/4 305/3/4
f 296/4/4 298/4/4 306/4/4
f 298/3/4 302/3/4 306/3/4
f 302/3/4 304/3/4 306/3/4
f 304/2/4 305/2/4 307/2/4
f 306/3/4 304/3/4 307/3/4
f 305/3/4 301/3/4 308/3/4
f 307/2/4 305/2/4 308/2/4
f 301/4/4 297/4/4 309/4/4
f 308/3/4 301/3/4 309/3/4
f 306/4/4 307/4/4 310/4/4
f 307/4/4 308/4/4 310/4/4
f 308/4/4 309/4/4 310/4/4
f 296/4/4 306/4/4 310/4/4
f 309/4/4 297/4/4 311/4/4
f 310/4/4 309/4/4 311/4/4
f 314/4/5 313/4/5 312/4/5
f 315/4/5 313/4/5 314/4/5
f 317/4/5 314/4/5 312/4/5
f 318/4/5 313/4/5 315/4/5
f 320/4/5 317/4/5 316/4/5
f 321/3/5 315/3/5 314/3/5
f 321/4/5 317/4/5 320/4/5
f 321/4/5 314/4/5 317/4/5
f 322/4/5 319/4/5 318/4/5
f 322/3/5 315/3/5 321/3/5
f 322/4/5 318/4/5 315/4/5
f 323/4/5 319/4/5 322/4/5
f 324/3/5 321/3/5 320/3/5
f 324/4/5 320/4/5 316/4/5
f 324/3/5 323/3/5 322/3/5
f 324/3/5 322/3/5 321/3/5
f 325/3/5 323/3/5 324/3/5
f 326/3/5 323/3/5 325/3/5
f 327/4/5 319/4/5 323/4/5
f 327/3/5 323/3/5 326/3/5
f 328/4/5 324/4/5 316/4/5
f 328/4/5 325/4/5 324/4/5
f 329/4/5 325/4/5 328/4/5
f 330/4/5 327/4/5 326/4/5
f 331/4/5 319/4/5 327/4/5
f 331/4/5 327/4/5 330/4/5
f 332/3/5 326/3/5 325/3/5
f 332/4/5 325/4/5 329/4/5
f 333/4/5 330/4/5 326/4/5
f 333/3/5 326/3/5 332/3/5
f 334/4/5 332/4/5 329/4/5
f 334/4/5 333/4/5 332/4/5
f 335/4/5 330/4/5 333/4/5
f 335/4/5 333/4/5 334/4/5
f 336/4/6 337/4/6 338/4/6
f 338/4/6 337/4/6 339/4/6
f 336/4/6 338/4/6 340/4/6
f 338/3/6 339/3/6 340/3/6
f 340/3/6 339/3/6 341/3/6
f 336/4/6 340/4/6 343/4/6
f 340/2/6 341/2/6 344/2/6
f 343/4/6 340/4/6 344/4/6
f 341/3/6 339/3/6 345/3/6
f 344/2/6 341/2/6 345/2/6
f 345/3/6 339/3/6 346/3/6
f 346/3/6 339/3/6 347/3/6
f 347/3/6 339/3/6 348/3/6
f 339/4/6 337/4/6 349/4/6
f 348/3/6 339/3/6 349/3/6
f 349/4/6 337/4/6 350/4/6
f 342/4/6 343/4/6 352/4/6
f 343/3/6 344/3/6 353/3/6
f 352/4/6 343/4/6 353/4/6
f 344/2/6 345/2/6 354/2/6
f 349/3/6 350/3/6 355/3/6
f 348/3/6 349/3/6 355/3/6
f 355/3/6 350/3/6 356/3/6
f 350/4/6 351/4/6 357/4/6
f 356/3/6 350/3/6 357/3/6
f 357/4/6 351/4/6 358/4/6
f 353/3/6 344/3/6 359/3/6
f 352/3/6 353/3/6 359/3/6
f 344/2/6 354/2/6 360/2/6
f 359/3/6 344/3/6 360/3/6
f 360/2/6 354/2/6 361/2/6
f 355/2/6 356/2/6 362/2/6
f 357/3/6 358/3/6 363/3/6
f 362/2/6 356/2/6 363/2/6
f 356/3/6 357/3/6 363/3/6
f 363/3/6 358/3/6 364/3/6
f 364/3/6 358/3/6 365/3/6
f 352/3/6 359/3/6 366/3/6
f 366/3/6 359/3/6 367/3/6
f 365/3/6 358/3/6 368/3/6
f 368/3/6 358/3/6 369/3/6
f 369/3/6 358/3/6 370/3/6
f 369/2/6 370/2/6 371/2/6
f 370/3/6 358/3/6 372/3/6
f 371/2/6 370/2/6 372/2/6
f 366/2/6 367/2/6 373/2/6
f 352/3/6 366/3/6 373/3/6
f 373/2/6 367/2/6 374/2/6
f 373/3/6 374/3/6 375/3/6
f 371/3/6 372/3/6 376/3/6
f 373/3/6 375/3/6 377/3/6
f 376/3/6 372/3/6 382/3/6
f 342/4/6 352/4/6 383/4/6
f 352/3/6 373/3/6 383/3/6
f 373/3/6 377/3/6 383/3/6
f 377/3/6 378/3/6 383/3/6
f 378/3/6 379/3/6 383/3/6
f 383/3/6 379/3/6 384/3/6
f 384/3/6 379/3/6 385/3/6
f 381/3/6 382/3/6 386/3/6
f 380/3/6 381/3/6 386/3/6
f 382/3/6 372/3/6 387/3/6
f 386/3/6 382/3/6 387/3/6
f 372/3/6 358/3/6 388/3/6
f 387/3/6 372/3/6 388/3/6
f 358/4/6 351/4/6 388/4/6
f 342/4/6 383/4/6 389/4/6
f 383/4/6 384/4/6 389/4/6
f 384/3/6 385/3/6 390/3/6
f 389/4/6 384/4/6 390/4/6
f 390/3/6 385/3/6 391/3/6
f 391/3/6 385/3/6 392/3/6
f 386/3/6 387/3/6 395/3/6
f 395/3/6 387/3/6 396/3/6
f 387/4/6 388/4/6 397/4/6
f 396/3/6 387/3/6 397/3/6
f 388/4/6 351/4/6 398/4/6
f 397/4/6 388/4/6 398/4/6
f 393/3/6 394/3/6 399/3/6
f 395/3/6 396/3/6 399/3/6
f 394/3/6 395/3/6 399/3/6
f 392/3/6 393/3/6 399/3/6
f 391/3/6 392/3/6 399/3/6
f 390/4/6 391/4/6 399/4/6
f 396/4/6 397/4/6 400/4/6
f 399/3/6 396/3/6 400/3/6
f 390/4/6 399/4/6 401/4/6
f 399/4/6 400/4/6 401/4/6
f 400/4/6 397/4/6 402/4/6
f 401/4/6 400/4/6 402/4/6
f 403/4/6 404/4/6 405/4/6
f 405/4/6 404/4/6 406/4/6
f 403/4/6 405/4/6 408/4/6
f 405/3/6 406/3/6 409/3/6
f 408/4/6 405/4/6 409/4/6
f 409/3/6 406/3/6 410/3/6
f 406/4/6 404/4/6 411/4/6
f 410/3/6 406/3/6 411/3/6
f 411/4/6 404/4/6 412/4/6
f 407/4/6 408/4/6 414/4/6
f 414/4/6 408/4/6 415/4/6
f 412/4/6 413/4/6 416/4/6
f 416/4/6 413/4/6 417/4/6
f 417/4/6 413/4/6 418/4/6
f 416/2/6 417/2/6 419/2/6
f 417/3/6 418/3/6 420/3/6
f 419/2/6 417/2/6 420/2/6
f 414/3/6 415/3/6 421/3/6
f 407/4/6 414/4/6 421/4/6
f 421/3/6 415/3/6 422/3/6
f 407/4/6 421/4/6 423/4/6
f 421/2/6 422/2/6 423/2/6
f 423/2/6 422/2/6 424/2/6
f 407/4/6 423/4/6 425/4/6
f 423/3/6 424/3/6 425/3/6
f 425/3/6 424/3/6 426/3/6
f 419/3/6 420/3/6 427/3/6
f 420/3/6 418/3/6 428/3/6
f 427/3/6 420/3/6 428/3/6
f 418/4/6 413/4/6 428/4/6
f 425/4/6 426/4/6 429/4/6
f 407/4/6 425/4/6 429/4/6
f 429/4/6 426/4/6 430/4/6
f 427/4/6 428/4/6 434/4/6
f 428/4/6 413/4/6 435/4/6
f 434/4/6 428/4/6 435/4/6
f 430/4/6 431/4/6 436/4/6
f 431/3/6 432/3/6 436/3/6
f 432/2/6 433/2/6 437/2/6
f 436/3/6 432/3/6 437/3/6
f 433/4/6 434/4/6 438/4/6
f 437/2/6 433/2/6 438/2/6
f 436/4/6 437/4/6 439/4/6
f 430/4/6 436/4/6 439/4/6
f 437/4/6 438/4/6 439/4/6
f 438/4/6 434/4/6 440/4/6
f 439/4/6 438/4/6 440/4/6
f 441/4/6 442/4/6 443/4/6
f 443/4/6 442/4/6 444/4/6
f 444/4/6 442/4/6 445/4/6
f 443/3/6 444/3/6 446/3/6
f 444/2/6 445/2/6 446/2/6
f 445/4/6 442/4/6 447/4/6
f 446/2/6 445/2/6 447/2/6
f 441/4/6 443/4/6 448/4/6
f 443/3/6 446/3/6 448/3/6
f 446/3/6 447/3/6 448/3/6
f 448/3/6 447/3/6 449/3/6
f 441/4/6 448/4/6 450/4/6
f 448/2/6 449/2/6 450/2/6
f 449/3/6 447/3/6 451/3/6
f 450/2/6 449/2/6 451/2/6
f 441/4/6 450/4/6 452/4/6
f 450/3/6 451/3/6 452/3/6
f 447/4/6 442/4/6 453/4/6
f 452/3/6 451/3/6 453/3/6
f 451/3/6 447/3/6 453/3/6
f 441/4/6 452/4/6 454/4/6
f 452/4/6 453/4/6 454/4/6
f 453/4/6 442/4/6 455/4/6
f 454/4/6 453/4/6 455/4/6
