# MagicaVoxel @ Ephtracy

# group
o 

# material
mtllib RatRed.mtl
usemtl palette

# normals
vn -1 0 0
vn 1 0 0
vn 0 0 1
vn 0 0 -1
vn 0 -1 0
vn 0 1 0

# texcoords
vt 0.00195313 0.5
vt 0.0566406 0.5
vt 0.0605469 0.5
vt 0.224609 0.5
vt 0.248047 0.5
vt 0.958984 0.5

# verts
v -0.2 0.2 0.2
v -0.2 0.2 -0.2
v -0.2 0.3 0.1
v -0.2 0.3 -0.2
v -0.2 0.3 -0.3
v -0.2 0.4 0.2
v -0.2 0.4 0.1
v -0.2 0.4 -0.2
v -0.2 0.4 -0.3
v -0.2 0.5 0.1
v -0.2 0.5 -0.2
v -0.2 0.6 0.6
v -0.2 0.6 0.5
v -0.2 0.7 0.6
v -0.2 0.7 0.5
v -0.1 0 0.5
v -0.1 0 0.4
v -0.1 0 -0.2
v -0.1 0 -0.3
v -0.1 0.2 0.5
v -0.1 0.2 0.4
v -0.1 0.2 0.2
v -0.1 0.2 -0.2
v -0.1 0.2 -0.3
v -0.1 0.3 0.5
v -0.1 0.3 0.4
v -0.1 0.3 -0.2
v -0.1 0.3 -0.3
v -0.1 0.3 -0.4
v -0.1 0.4 0.7
v -0.1 0.4 0.5
v -0.1 0.4 0.4
v -0.1 0.4 0.2
v -0.1 0.4 0.1
v -0.1 0.4 -0.2
v -0.1 0.4 -0.3
v -0.1 0.4 -0.4
v -0.1 0.5 0.7
v -0.1 0.5 0.6
v -0.1 0.5 0.5
v -0.1 0.5 0.4
v -0.1 0.5 0.1
v -0.1 0.5 -0.2
v -0.1 0.5 -0.3
v -0.1 0.6 0.6
v -0.1 0.6 0.5
v -0.1 0.6 0.4
v -0.1 0.6 0.1
v -0.1 0.6 -0.2
v 0 0.3 0.7
v 0 0.3 0.5
v 0 0.4 0.8
v 0 0.4 0.7
v 0 0.4 0.5
v 0 0.4 -0.3
v 0 0.4 -0.4
v 0 0.4 -0.6
v 0 0.5 0.8
v 0 0.5 0.7
v 0 0.5 -0.3
v 0 0.5 -0.6
v 0 0.5 -0.7
v 0 0.9 -0.6
v 0 0.9 -0.7
v 0.1 0 0.5
v 0.1 0 0.4
v 0.1 0 -0.2
v 0.1 0 -0.3
v 0.1 0.2 0.5
v 0.1 0.2 0.4
v 0.1 0.2 -0.2
v 0.1 0.2 -0.3
v 0.2 0.6 0.6
v 0.2 0.6 0.5
v 0.2 0.7 0.6
v 0.2 0.7 0.5
v -0.1 0.6 0.6
v -0.1 0.6 0.5
v -0.1 0.7 0.6
v -0.1 0.7 0.5
v 0 0 0.5
v 0 0 0.4
v 0 0 -0.2
v 0 0 -0.3
v 0 0.2 0.5
v 0 0.2 0.4
v 0 0.2 -0.2
v 0 0.2 -0.3
v 0.1 0.3 0.7
v 0.1 0.3 0.5
v 0.1 0.4 0.8
v 0.1 0.4 0.7
v 0.1 0.4 0.5
v 0.1 0.4 -0.3
v 0.1 0.4 -0.4
v 0.1 0.4 -0.6
v 0.1 0.5 0.8
v 0.1 0.5 0.7
v 0.1 0.5 -0.3
v 0.1 0.5 -0.6
v 0.1 0.5 -0.7
v 0.1 0.9 -0.6
v 0.1 0.9 -0.7
v 0.2 0 0.5
v 0.2 0 0.4
v 0.2 0 -0.2
v 0.2 0 -0.3
v 0.2 0.2 0.5
v 0.2 0.2 0.4
v 0.2 0.2 0.2
v 0.2 0.2 -0.2
v 0.2 0.2 -0.3
v 0.2 0.3 0.5
v 0.2 0.3 0.4
v 0.2 0.3 -0.2
v 0.2 0.3 -0.3
v 0.2 0.3 -0.4
v 0.2 0.4 0.7
v 0.2 0.4 0.5
v 0.2 0.4 0.4
v 0.2 0.4 0.2
v 0.2 0.4 0.1
v 0.2 0.4 -0.2
v 0.2 0.4 -0.3
v 0.2 0.4 -0.4
v 0.2 0.5 0.7
v 0.2 0.5 0.6
v 0.2 0.5 0.5
v 0.2 0.5 0.4
v 0.2 0.5 0.1
v 0.2 0.5 -0.2
v 0.2 0.5 -0.3
v 0.2 0.6 0.6
v 0.2 0.6 0.5
v 0.2 0.6 0.4
v 0.2 0.6 0.1
v 0.2 0.6 -0.2
v 0.3 0.2 0.2
v 0.3 0.2 -0.2
v 0.3 0.3 0.1
v 0.3 0.3 -0.2
v 0.3 0.3 -0.3
v 0.3 0.4 0.2
v 0.3 0.4 0.1
v 0.3 0.4 -0.2
v 0.3 0.4 -0.3
v 0.3 0.5 0.1
v 0.3 0.5 -0.2
v 0.3 0.6 0.6
v 0.3 0.6 0.5
v 0.3 0.7 0.6
v 0.3 0.7 0.5
v 0 0.4 0.8
v 0 0.5 0.8
v 0.1 0.4 0.8
v 0.1 0.5 0.8
v -0.1 0.4 0.7
v -0.1 0.5 0.7
v 0 0.3 0.7
v 0 0.4 0.7
v 0 0.5 0.7
v 0.1 0.3 0.7
v 0.1 0.4 0.7
v 0.1 0.5 0.7
v 0.2 0.4 0.7
v 0.2 0.5 0.7
v -0.2 0.6 0.6
v -0.2 0.7 0.6
v -0.1 0.5 0.6
v -0.1 0.6 0.6
v -0.1 0.7 0.6
v 0 0.5 0.6
v 0 0.6 0.6
v 0.1 0.5 0.6
v 0.1 0.6 0.6
v 0.2 0.5 0.6
v 0.2 0.6 0.6
v 0.2 0.7 0.6
v 0.3 0.6 0.6
v 0.3 0.7 0.6
v -0.1 0 0.5
v -0.1 0.2 0.5
v -0.1 0.3 0.5
v -0.1 0.4 0.5
v 0 0 0.5
v 0 0.2 0.5
v 0 0.3 0.5
v 0 0.4 0.5
v 0.1 0 0.5
v 0.1 0.2 0.5
v 0.1 0.3 0.5
v 0.1 0.4 0.5
v 0.2 0 0.5
v 0.2 0.2 0.5
v 0.2 0.3 0.5
v 0.2 0.4 0.5
v -0.2 0.2 0.2
v -0.2 0.4 0.2
v -0.1 0.2 0.2
v -0.1 0.4 0.2
v 0.2 0.2 0.2
v 0.2 0.4 0.2
v 0.3 0.2 0.2
v 0.3 0.4 0.2
v -0.2 0.4 0.1
v -0.2 0.5 0.1
v -0.1 0.4 0.1
v -0.1 0.5 0.1
v -0.1 0.6 0.1
v 0.2 0.4 0.1
v 0.2 0.5 0.1
v 0.2 0.6 0.1
v 0.3 0.4 0.1
v 0.3 0.5 0.1
v -0.1 0 -0.2
v -0.1 0.2 -0.2
v 0 0 -0.2
v 0 0.2 -0.2
v 0.1 0 -0.2
v 0.1 0.2 -0.2
v 0.2 0 -0.2
v 0.2 0.2 -0.2
v 0 0.5 -0.6
v 0 0.9 -0.6
v 0.1 0.5 -0.6
v 0.1 0.9 -0.6
v -0.2 0.6 0.5
v -0.2 0.7 0.5
v -0.1 0.6 0.5
v -0.1 0.7 0.5
v 0.2 0.6 0.5
v 0.2 0.7 0.5
v 0.3 0.6 0.5
v 0.3 0.7 0.5
v -0.1 0 0.4
v -0.1 0.2 0.4
v -0.1 0.5 0.4
v -0.1 0.6 0.4
v 0 0 0.4
v 0 0.2 0.4
v 0.1 0 0.4
v 0.1 0.2 0.4
v 0.2 0 0.4
v 0.2 0.2 0.4
v 0.2 0.5 0.4
v 0.2 0.6 0.4
v -0.2 0.2 -0.2
v -0.2 0.3 -0.2
v -0.2 0.4 -0.2
v -0.2 0.5 -0.2
v -0.1 0.2 -0.2
v -0.1 0.3 -0.2
v -0.1 0.4 -0.2
v -0.1 0.5 -0.2
v -0.1 0.6 -0.2
v 0.2 0.2 -0.2
v 0.2 0.3 -0.2
v 0.2 0.4 -0.2
v 0.2 0.5 -0.2
v 0.2 0.6 -0.2
v 0.3 0.2 -0.2
v 0.3 0.3 -0.2
v 0.3 0.4 -0.2
v 0.3 0.5 -0.2
v -0.2 0.3 -0.3
v -0.2 0.4 -0.3
v -0.1 0 -0.3
v -0.1 0.2 -0.3
v -0.1 0.3 -0.3
v -0.1 0.4 -0.3
v -0.1 0.5 -0.3
v 0 0 -0.3
v 0 0.2 -0.3
v 0 0.4 -0.3
v 0 0.5 -0.3
v 0.1 0 -0.3
v 0.1 0.2 -0.3
v 0.1 0.4 -0.3
v 0.1 0.5 -0.3
v 0.2 0 -0.3
v 0.2 0.2 -0.3
v 0.2 0.3 -0.3
v 0.2 0.4 -0.3
v 0.2 0.5 -0.3
v 0.3 0.3 -0.3
v 0.3 0.4 -0.3
v -0.1 0.3 -0.4
v -0.1 0.4 -0.4
v 0 0.4 -0.4
v 0.1 0.4 -0.4
v 0.2 0.3 -0.4
v 0.2 0.4 -0.4
v 0 0.4 -0.6
v 0 0.5 -0.6
v 0.1 0.4 -0.6
v 0.1 0.5 -0.6
v 0 0.5 -0.7
v 0 0.9 -0.7
v 0.1 0.5 -0.7
v 0.1 0.9 -0.7
v -0.1 0 0.5
v 0 0 0.5
v 0.1 0 0.5
v 0.2 0 0.5
v -0.1 0 0.4
v 0 0 0.4
v 0.1 0 0.4
v 0.2 0 0.4
v -0.1 0 -0.2
v 0 0 -0.2
v 0.1 0 -0.2
v 0.2 0 -0.2
v -0.1 0 -0.3
v 0 0 -0.3
v 0.1 0 -0.3
v 0.2 0 -0.3
v 0 0.2 0.5
v 0.1 0.2 0.5
v -0.1 0.2 0.4
v 0 0.2 0.4
v 0.1 0.2 0.4
v 0.2 0.2 0.4
v -0.2 0.2 0.2
v -0.1 0.2 0.2
v 0.2 0.2 0.2
v 0.3 0.2 0.2
v -0.2 0.2 -0.2
v -0.1 0.2 -0.2
v 0 0.2 -0.2
v 0.1 0.2 -0.2
v 0.2 0.2 -0.2
v 0.3 0.2 -0.2
v 0 0.2 -0.3
v 0.1 0.2 -0.3
v 0 0.3 0.7
v 0.1 0.3 0.7
v 0 0.3 0.5
v 0.1 0.3 0.5
v -0.2 0.3 -0.2
v -0.1 0.3 -0.2
v 0.2 0.3 -0.2
v 0.3 0.3 -0.2
v -0.2 0.3 -0.3
v -0.1 0.3 -0.3
v 0.2 0.3 -0.3
v 0.3 0.3 -0.3
v -0.1 0.3 -0.4
v 0.2 0.3 -0.4
v 0 0.4 0.8
v 0.1 0.4 0.8
v -0.1 0.4 0.7
v 0 0.4 0.7
v 0.1 0.4 0.7
v 0.2 0.4 0.7
v -0.1 0.4 0.5
v 0 0.4 0.5
v 0.1 0.4 0.5
v 0.2 0.4 0.5
v 0 0.4 -0.4
v 0.1 0.4 -0.4
v 0 0.4 -0.6
v 0.1 0.4 -0.6
v 0 0.5 -0.6
v 0.1 0.5 -0.6
v 0 0.5 -0.7
v 0.1 0.5 -0.7
v -0.2 0.6 0.6
v -0.1 0.6 0.6
v 0.2 0.6 0.6
v 0.3 0.6 0.6
v -0.2 0.6 0.5
v -0.1 0.6 0.5
v 0.2 0.6 0.5
v 0.3 0.6 0.5
v -0.2 0.4 0.2
v -0.1 0.4 0.2
v 0.2 0.4 0.2
v 0.3 0.4 0.2
v -0.2 0.4 0.1
v -0.1 0.4 0.1
v 0.2 0.4 0.1
v 0.3 0.4 0.1
v -0.2 0.4 -0.2
v -0.1 0.4 -0.2
v 0.2 0.4 -0.2
v 0.3 0.4 -0.2
v -0.2 0.4 -0.3
v -0.1 0.4 -0.3
v 0 0.4 -0.3
v 0.1 0.4 -0.3
v 0.2 0.4 -0.3
v 0.3 0.4 -0.3
v -0.1 0.4 -0.4
v 0 0.4 -0.4
v 0.1 0.4 -0.4
v 0.2 0.4 -0.4
v 0 0.5 0.8
v 0.1 0.5 0.8
v -0.1 0.5 0.7
v 0 0.5 0.7
v 0.1 0.5 0.7
v 0.2 0.5 0.7
v -0.1 0.5 0.6
v 0 0.5 0.6
v 0.1 0.5 0.6
v 0.2 0.5 0.6
v -0.1 0.5 0.4
v 0.2 0.5 0.4
v -0.2 0.5 0.1
v -0.1 0.5 0.1
v 0.2 0.5 0.1
v 0.3 0.5 0.1
v -0.2 0.5 -0.2
v -0.1 0.5 -0.2
v 0.2 0.5 -0.2
v 0.3 0.5 -0.2
v -0.1 0.5 -0.3
v 0 0.5 -0.3
v 0.1 0.5 -0.3
v 0.2 0.5 -0.3
v 0 0.5 -0.6
v 0.1 0.5 -0.6
v -0.1 0.6 0.6
v 0 0.6 0.6
v 0.1 0.6 0.6
v 0.2 0.6 0.6
v -0.1 0.6 0.5
v 0 0.6 0.5
v 0.1 0.6 0.5
v 0.2 0.6 0.5
v -0.1 0.6 0.4
v 0.2 0.6 0.4
v -0.1 0.6 0.1
v 0.2 0.6 0.1
v -0.1 0.6 -0.2
v 0.2 0.6 -0.2
v -0.2 0.7 0.6
v -0.1 0.7 0.6
v 0.2 0.7 0.6
v 0.3 0.7 0.6
v -0.2 0.7 0.5
v -0.1 0.7 0.5
v 0.2 0.7 0.5
v 0.3 0.7 0.5
v 0 0.9 -0.6
v 0.1 0.9 -0.6
v 0 0.9 -0.7
v 0.1 0.9 -0.7

# faces
f 3/5/1 2/5/1 1/5/1
f 4/5/1 2/5/1 3/5/1
f 6/5/1 3/5/1 1/5/1
f 7/2/1 4/2/1 3/2/1
f 7/5/1 3/5/1 6/5/1
f 8/5/1 5/5/1 4/5/1
f 8/2/1 4/2/1 7/2/1
f 9/5/1 5/5/1 8/5/1
f 10/2/1 8/2/1 7/2/1
f 11/2/1 8/2/1 10/2/1
f 14/4/1 13/4/1 12/4/1
f 15/4/1 13/4/1 14/4/1
f 20/4/1 17/4/1 16/4/1
f 21/4/1 17/4/1 20/4/1
f 23/4/1 19/4/1 18/4/1
f 24/4/1 19/4/1 23/4/1
f 25/5/1 22/5/1 21/5/1
f 25/5/1 21/5/1 20/5/1
f 26/5/1 22/5/1 25/5/1
f 27/5/1 24/5/1 23/5/1
f 28/5/1 24/5/1 27/5/1
f 31/2/1 26/2/1 25/2/1
f 32/5/1 22/5/1 26/5/1
f 32/2/1 26/2/1 31/2/1
f 33/5/1 22/5/1 32/5/1
f 36/5/1 29/5/1 28/5/1
f 37/5/1 29/5/1 36/5/1
f 38/2/1 34/2/1 33/2/1
f 38/2/1 31/2/1 30/2/1
f 38/2/1 32/2/1 31/2/1
f 38/2/1 33/2/1 32/2/1
f 39/2/1 34/2/1 38/2/1
f 40/2/1 34/2/1 39/2/1
f 41/2/1 34/2/1 40/2/1
f 42/2/1 34/2/1 41/2/1
f 43/2/1 36/2/1 35/2/1
f 44/2/1 36/2/1 43/2/1
f 45/1/1 40/1/1 39/1/1
f 46/2/1 41/2/1 40/2/1
f 46/1/1 40/1/1 45/1/1
f 47/2/1 41/2/1 46/2/1
f 48/2/1 43/2/1 42/2/1
f 49/2/1 43/2/1 48/2/1
f 53/2/1 51/2/1 50/2/1
f 54/2/1 51/2/1 53/2/1
f 58/4/1 53/4/1 52/4/1
f 59/4/1 53/4/1 58/4/1
f 60/4/1 57/4/1 56/4/1
f 60/4/1 56/4/1 55/4/1
f 61/4/1 57/4/1 60/4/1
f 63/4/1 62/4/1 61/4/1
f 64/4/1 62/4/1 63/4/1
f 69/4/1 66/4/1 65/4/1
f 70/4/1 66/4/1 69/4/1
f 71/4/1 68/4/1 67/4/1
f 72/4/1 68/4/1 71/4/1
f 75/4/1 74/4/1 73/4/1
f 76/4/1 74/4/1 75/4/1
f 77/4/2 78/4/2 79/4/2
f 79/4/2 78/4/2 80/4/2
f 81/4/2 82/4/2 85/4/2
f 85/4/2 82/4/2 86/4/2
f 83/4/2 84/4/2 87/4/2
f 87/4/2 84/4/2 88/4/2
f 89/2/2 90/2/2 92/2/2
f 92/2/2 90/2/2 93/2/2
f 91/4/2 92/4/2 97/4/2
f 97/4/2 92/4/2 98/4/2
f 95/4/2 96/4/2 99/4/2
f 94/4/2 95/4/2 99/4/2
f 99/4/2 96/4/2 100/4/2
f 100/4/2 101/4/2 102/4/2
f 102/4/2 101/4/2 103/4/2
f 104/4/2 105/4/2 108/4/2
f 108/4/2 105/4/2 109/4/2
f 106/4/2 107/4/2 111/4/2
f 111/4/2 107/4/2 112/4/2
f 109/5/2 110/5/2 113/5/2
f 108/5/2 109/5/2 113/5/2
f 113/5/2 110/5/2 114/5/2
f 111/5/2 112/5/2 115/5/2
f 115/5/2 112/5/2 116/5/2
f 113/2/2 114/2/2 119/2/2
f 114/5/2 110/5/2 120/5/2
f 119/2/2 114/2/2 120/2/2
f 120/5/2 110/5/2 121/5/2
f 116/5/2 117/5/2 124/5/2
f 124/5/2 117/5/2 125/5/2
f 121/2/2 122/2/2 126/2/2
f 118/2/2 119/2/2 126/2/2
f 119/2/2 120/2/2 126/2/2
f 120/2/2 121/2/2 126/2/2
f 126/2/2 122/2/2 127/2/2
f 127/2/2 122/2/2 128/2/2
f 128/2/2 122/2/2 129/2/2
f 129/2/2 122/2/2 130/2/2
f 123/2/2 124/2/2 131/2/2
f 131/2/2 124/2/2 132/2/2
f 127/1/2 128/1/2 133/1/2
f 128/2/2 129/2/2 134/2/2
f 133/1/2 128/1/2 134/1/2
f 134/2/2 129/2/2 135/2/2
f 130/2/2 131/2/2 136/2/2
f 136/2/2 131/2/2 137/2/2
f 138/5/2 139/5/2 140/5/2
f 140/5/2 139/5/2 141/5/2
f 138/5/2 140/5/2 143/5/2
f 140/2/2 141/2/2 144/2/2
f 143/5/2 140/5/2 144/5/2
f 141/5/2 142/5/2 145/5/2
f 144/2/2 141/2/2 145/2/2
f 145/5/2 142/5/2 146/5/2
f 144/2/2 145/2/2 147/2/2
f 147/2/2 145/2/2 148/2/2
f 149/4/2 150/4/2 151/4/2
f 151/4/2 150/4/2 152/4/2
f 155/4/3 154/4/3 153/4/3
f 156/4/3 154/4/3 155/4/3
f 160/2/3 158/2/3 157/2/3
f 161/2/3 158/2/3 160/2/3
f 162/2/3 160/2/3 159/2/3
f 163/2/3 160/2/3 162/2/3
f 165/2/3 164/2/3 163/2/3
f 166/2/3 164/2/3 165/2/3
f 170/4/3 168/4/3 167/4/3
f 171/4/3 168/4/3 170/4/3
f 172/1/3 170/1/3 169/1/3
f 173/1/3 170/1/3 172/1/3
f 174/2/3 173/2/3 172/2/3
f 175/2/3 173/2/3 174/2/3
f 176/1/3 175/1/3 174/1/3
f 177/1/3 175/1/3 176/1/3
f 179/4/3 178/4/3 177/4/3
f 180/4/3 178/4/3 179/4/3
f 185/4/3 182/4/3 181/4/3
f 186/5/3 183/5/3 182/5/3
f 186/4/3 182/4/3 185/4/3
f 187/2/3 184/2/3 183/2/3
f 187/5/3 183/5/3 186/5/3
f 188/2/3 184/2/3 187/2/3
f 190/5/3 187/5/3 186/5/3
f 191/5/3 187/5/3 190/5/3
f 193/4/3 190/4/3 189/4/3
f 194/5/3 191/5/3 190/5/3
f 194/4/3 190/4/3 193/4/3
f 195/2/3 192/2/3 191/2/3
f 195/5/3 191/5/3 194/5/3
f 196/2/3 192/2/3 195/2/3
f 199/5/3 198/5/3 197/5/3
f 200/5/3 198/5/3 199/5/3
f 203/5/3 202/5/3 201/5/3
f 204/5/3 202/5/3 203/5/3
f 207/2/3 206/2/3 205/2/3
f 208/2/3 206/2/3 207/2/3
f 211/2/3 209/2/3 208/2/3
f 212/2/3 209/2/3 211/2/3
f 213/2/3 211/2/3 210/2/3
f 214/2/3 211/2/3 213/2/3
f 217/4/3 216/4/3 215/4/3
f 218/4/3 216/4/3 217/4/3
f 221/4/3 220/4/3 219/4/3
f 222/4/3 220/4/3 221/4/3
f 225/4/3 224/4/3 223/4/3
f 226/4/3 224/4/3 225/4/3
f 227/4/4 228/4/4 229/4/4
f 229/4/4 228/4/4 230/4/4
f 231/4/4 232/4/4 233/4/4
f 233/4/4 232/4/4 234/4/4
f 235/4/4 236/4/4 239/4/4
f 239/4/4 236/4/4 240/4/4
f 241/4/4 242/4/4 243/4/4
f 243/4/4 242/4/4 244/4/4
f 237/2/4 238/2/4 245/2/4
f 245/2/4 238/2/4 246/2/4
f 247/5/4 248/5/4 251/5/4
f 251/5/4 248/5/4 252/5/4
f 249/2/4 250/2/4 253/2/4
f 253/2/4 250/2/4 254/2/4
f 254/2/4 255/2/4 259/2/4
f 259/2/4 255/2/4 260/2/4
f 256/5/4 257/5/4 261/5/4
f 261/5/4 257/5/4 262/5/4
f 258/2/4 259/2/4 263/2/4
f 263/2/4 259/2/4 264/2/4
f 265/5/4 266/5/4 269/5/4
f 269/5/4 266/5/4 270/5/4
f 267/4/4 268/4/4 272/4/4
f 268/5/4 269/5/4 273/5/4
f 272/4/4 268/4/4 273/4/4
f 270/2/4 271/2/4 274/2/4
f 274/2/4 271/2/4 275/2/4
f 273/5/4 269/5/4 277/5/4
f 276/4/4 277/4/4 280/4/4
f 277/5/4 269/5/4 281/5/4
f 280/4/4 277/4/4 281/4/4
f 281/5/4 269/5/4 282/5/4
f 278/2/4 279/2/4 283/2/4
f 283/2/4 279/2/4 284/2/4
f 282/5/4 283/5/4 285/5/4
f 285/5/4 283/5/4 286/5/4
f 287/5/4 288/5/4 289/5/4
f 287/5/4 289/5/4 290/5/4
f 287/5/4 290/5/4 291/5/4
f 291/5/4 290/5/4 292/5/4
f 293/4/4 294/4/4 295/4/4
f 295/4/4 294/4/4 296/4/4
f 297/4/4 298/4/4 299/4/4
f 299/4/4 298/4/4 300/4/4
f 305/4/5 302/4/5 301/4/5
f 306/4/5 302/4/5 305/4/5
f 307/4/5 304/4/5 303/4/5
f 308/4/5 304/4/5 307/4/5
f 313/4/5 310/4/5 309/4/5
f 314/4/5 310/4/5 313/4/5
f 315/4/5 312/4/5 311/4/5
f 316/4/5 312/4/5 315/4/5
f 320/5/5 318/5/5 317/5/5
f 321/5/5 318/5/5 320/5/5
f 324/5/5 320/5/5 319/5/5
f 324/5/5 322/5/5 321/5/5
f 324/5/5 321/5/5 320/5/5
f 325/5/5 322/5/5 324/5/5
f 327/5/5 324/5/5 323/5/5
f 327/5/5 326/5/5 325/5/5
f 327/5/5 325/5/5 324/5/5
f 328/5/5 326/5/5 327/5/5
f 329/5/5 326/5/5 328/5/5
f 330/5/5 326/5/5 329/5/5
f 331/5/5 326/5/5 330/5/5
f 332/5/5 326/5/5 331/5/5
f 333/5/5 330/5/5 329/5/5
f 334/5/5 330/5/5 333/5/5
f 337/2/5 336/2/5 335/2/5
f 338/2/5 336/2/5 337/2/5
f 343/5/5 340/5/5 339/5/5
f 344/5/5 340/5/5 343/5/5
f 345/5/5 342/5/5 341/5/5
f 346/5/5 342/5/5 345/5/5
f 347/5/5 345/5/5 344/5/5
f 348/5/5 345/5/5 347/5/5
f 352/4/5 350/4/5 349/4/5
f 353/4/5 350/4/5 352/4/5
f 355/2/5 352/2/5 351/2/5
f 356/2/5 352/2/5 355/2/5
f 357/2/5 354/2/5 353/2/5
f 358/2/5 354/2/5 357/2/5
f 361/4/5 360/4/5 359/4/5
f 362/4/5 360/4/5 361/4/5
f 365/4/5 364/4/5 363/4/5
f 366/4/5 364/4/5 365/4/5
f 371/4/5 368/4/5 367/4/5
f 372/4/5 368/4/5 371/4/5
f 373/4/5 370/4/5 369/4/5
f 374/4/5 370/4/5 373/4/5
f 375/5/6 376/5/6 379/5/6
f 379/5/6 376/5/6 380/5/6
f 377/5/6 378/5/6 381/5/6
f 381/5/6 378/5/6 382/5/6
f 383/5/6 384/5/6 387/5/6
f 387/5/6 384/5/6 388/5/6
f 385/5/6 386/5/6 391/5/6
f 391/5/6 386/5/6 392/5/6
f 388/5/6 389/5/6 393/5/6
f 393/5/6 389/5/6 394/5/6
f 390/5/6 391/5/6 395/5/6
f 395/5/6 391/5/6 396/5/6
f 397/4/6 398/4/6 400/4/6
f 400/4/6 398/4/6 401/4/6
f 399/2/6 400/2/6 403/2/6
f 401/2/6 402/2/6 403/2/6
f 400/2/6 401/2/6 403/2/6
f 403/2/6 402/2/6 404/2/6
f 404/2/6 402/2/6 405/2/6
f 405/2/6 402/2/6 406/2/6
f 407/2/6 408/2/6 410/2/6
f 410/2/6 408/2/6 411/2/6
f 409/2/6 410/2/6 413/2/6
f 413/2/6 410/2/6 414/2/6
f 411/2/6 412/2/6 415/2/6
f 415/2/6 412/2/6 416/2/6
f 414/2/6 415/2/6 417/2/6
f 417/2/6 415/2/6 418/2/6
f 418/2/6 415/2/6 419/2/6
f 419/2/6 415/2/6 420/2/6
f 418/4/6 419/4/6 421/4/6
f 421/4/6 419/4/6 422/4/6
f 423/1/6 424/1/6 427/1/6
f 424/2/6 425/2/6 428/2/6
f 427/1/6 424/1/6 428/1/6
f 425/1/6 426/1/6 429/1/6
f 428/2/6 425/2/6 429/2/6
f 429/1/6 426/1/6 430/1/6
f 427/2/6 428/2/6 431/2/6
f 428/2/6 429/2/6 431/2/6
f 429/2/6 430/2/6 431/2/6
f 431/2/6 430/2/6 432/2/6
f 433/2/6 434/2/6 435/2/6
f 435/2/6 434/2/6 436/2/6
f 437/4/6 438/4/6 441/4/6
f 441/4/6 438/4/6 442/4/6
f 439/4/6 440/4/6 443/4/6
f 443/4/6 440/4/6 444/4/6
f 445/4/6 446/4/6 447/4/6
f 447/4/6 446/4/6 448/4/6
